<?xml version="1.0" encoding="UTF-8" standalone="no"?>
<svg
   xmlns:dc="http://purl.org/dc/elements/1.1/"
   xmlns:cc="http://creativecommons.org/ns#"
   xmlns:rdf="http://www.w3.org/1999/02/22-rdf-syntax-ns#"
   xmlns:svg="http://www.w3.org/2000/svg"
   xmlns="http://www.w3.org/2000/svg"
   xmlns:sodipodi="http://sodipodi.sourceforge.net/DTD/sodipodi-0.dtd"
   xmlns:inkscape="http://www.inkscape.org/namespaces/inkscape"
   sodipodi:docname="data-rights.svg"
   inkscape:version="1.0.1 (3bc2e813f5, 2020-09-07)"
   id="svg1036"
   version="1.1"
   viewBox="0 0 86.240265 37.456825"
   height="37.456825mm"
   width="86.240265mm">
  <defs
     id="defs1030" />
  <sodipodi:namedview
     inkscape:window-maximized="1"
     inkscape:window-y="0"
     inkscape:window-x="0"
     inkscape:window-height="1023"
     inkscape:window-width="1680"
     fit-margin-bottom="0"
     fit-margin-right="0"
     fit-margin-left="0"
     fit-margin-top="0"
     showgrid="false"
     inkscape:document-rotation="0"
     inkscape:current-layer="text1316"
     inkscape:document-units="mm"
     inkscape:cy="89.217323"
     inkscape:cx="225.60423"
     inkscape:zoom="2.3851163"
     inkscape:pageshadow="2"
     inkscape:pageopacity="0.0"
     borderopacity="1.0"
     bordercolor="#666666"
     pagecolor="#ffffff"
     id="base" />
  <metadata
     id="metadata1033">
    <rdf:RDF>
      <cc:Work
         rdf:about="">
        <dc:format>image/svg+xml</dc:format>
        <dc:type
           rdf:resource="http://purl.org/dc/dcmitype/StillImage" />
        <dc:title />
      </cc:Work>
    </rdf:RDF>
  </metadata>
  <g
     transform="translate(-3.7489135,-53.843015)"
     id="layer1"
     inkscape:groupmode="layer"
     inkscape:label="Calque 1">
    <g
       aria-label="Data Rights"
       style="font-style:normal;font-variant:normal;font-weight:normal;font-stretch:normal;font-size:3.52777004px;line-height:1;font-family:'Open Sans';-inkscape-font-specification:'Open Sans';letter-spacing:0px;word-spacing:0px;fill:#000000;fill-opacity:1;stroke:none;stroke-width:0.26458299"
       id="text1316">
      <path
         d="m 35.612056,53.855945 q 2.413004,0 4.318007,0.931335 1.905003,0.931335 2.963338,2.582338 1.079502,1.651002 1.079502,3.746506 0,2.095503 -1.079502,3.767672 -1.058335,1.651003 -2.963338,2.582338 -1.905003,0.931335 -4.318007,0.931335 H 30.405048 V 53.855945 Z m 0.402167,11.705186 q 1.375836,0 2.455338,-0.571501 1.079501,-0.571501 1.672169,-1.566336 0.613834,-1.016002 0.613834,-2.30717 0,-1.270002 -0.613834,-2.286004 -0.592668,-1.016002 -1.672169,-1.566336 -1.079502,-0.571501 -2.455338,-0.571501 h -2.49767 v 8.868848 z"
         style="font-style:normal;font-variant:normal;font-weight:bold;font-stretch:normal;font-size:21.16670036px;line-height:91.00000262%;font-family:Metropolis;-inkscape-font-specification:'Metropolis Bold';letter-spacing:-0.529167px;stroke-width:0.26458299"
         id="path43" />
      <path
         d="m 49.472938,57.200284 q 1.418169,0 2.518837,0.571501 1.100668,0.571501 1.693336,1.629836 0.613834,1.037168 0.613834,2.455337 v 6.540511 H 51.314441 V 67.2968 q -0.571501,0.635001 -1.460503,0.994835 -0.867834,0.359834 -1.778003,0.359834 -1.164168,0 -2.095503,-0.423334 -0.931335,-0.444501 -1.481669,-1.227669 -0.529167,-0.804334 -0.529167,-1.841503 0,-1.058335 0.592667,-1.883836 0.613835,-0.825501 1.651003,-1.291169 1.037168,-0.465667 2.286003,-0.465667 1.418169,0 2.815172,0.571501 v -0.232834 q 0,-0.952501 -0.635001,-1.566336 -0.635001,-0.613834 -1.905003,-0.613834 -1.312336,0 -2.836338,0.783168 l -1.037169,-2.05317 q 2.370671,-1.206502 4.572008,-1.206502 z m -0.698501,9.313348 q 0.931334,0 1.651002,-0.402167 0.719668,-0.423334 0.889002,-1.164169 v -0.994835 q -1.079502,-0.423334 -2.370671,-0.423334 -0.846668,0 -1.439335,0.444501 -0.592668,0.444501 -0.592668,1.100669 0,0.656167 0.529167,1.058335 0.529168,0.381 1.333503,0.381 z"
         style="font-style:normal;font-variant:normal;font-weight:bold;font-stretch:normal;font-size:21.16670036px;line-height:91.00000262%;font-family:Metropolis;-inkscape-font-specification:'Metropolis Bold';letter-spacing:-0.529167px;stroke-width:0.26458299"
         id="path45" />
      <path
         d="m 61.914328,67.698967 q -0.486834,0.423334 -1.164169,0.698502 -0.677334,0.254 -1.333502,0.254 -1.460502,0 -2.391837,-0.931335 -0.910168,-0.931335 -0.910168,-2.413004 v -5.355175 h -1.502836 v -2.497671 h 1.502836 v -3.005671 h 2.984505 v 3.005671 h 2.37067 v 2.497671 h -2.37067 v 4.868341 q 0,0.529168 0.296333,0.889002 0.296334,0.338667 0.740835,0.338667 0.3175,0 0.592667,-0.08467 0.275168,-0.105833 0.444501,-0.275167 z"
         style="font-style:normal;font-variant:normal;font-weight:bold;font-stretch:normal;font-size:21.1667px;line-height:91%;font-family:Metropolis;-inkscape-font-specification:'Metropolis Bold';letter-spacing:-0.529167px;stroke-width:0.264583"
         id="path47" />
      <path
         d="m 67.348879,57.200284 q 1.418169,0 2.518837,0.571501 1.100669,0.571501 1.693336,1.629836 0.613835,1.037168 0.613835,2.455337 v 6.540511 H 69.190382 V 67.2968 q -0.571501,0.635001 -1.460502,0.994835 -0.867835,0.359834 -1.778003,0.359834 -1.164169,0 -2.095504,-0.423334 -0.931334,-0.444501 -1.481669,-1.227669 -0.529167,-0.804334 -0.529167,-1.841503 0,-1.058335 0.592667,-1.883836 0.613835,-0.825501 1.651003,-1.291169 1.037168,-0.465667 2.286004,-0.465667 1.418169,0 2.815171,0.571501 v -0.232834 q 0,-0.952501 -0.635001,-1.566336 -0.635001,-0.613834 -1.905003,-0.613834 -1.312336,0 -2.836338,0.783168 l -1.037168,-2.05317 q 2.37067,-1.206502 4.572007,-1.206502 z m -0.698501,9.313348 q 0.931335,0 1.651002,-0.402167 0.719668,-0.423334 0.889002,-1.164169 v -0.994835 q -1.079502,-0.423334 -2.370671,-0.423334 -0.846668,0 -1.439335,0.444501 -0.592668,0.444501 -0.592668,1.100669 0,0.656167 0.529168,1.058335 0.529167,0.381 1.333502,0.381 z"
         style="font-style:normal;font-variant:normal;font-weight:bold;font-stretch:normal;font-size:21.16670036px;line-height:91.00000262%;font-family:Metropolis;-inkscape-font-specification:'Metropolis Bold';letter-spacing:-0.529167px;stroke-width:0.26458299"
         id="path49" />
      <path
         d="m 42.427734,78.028318 q 0,1.693336 -0.994835,2.942171 -0.994835,1.227669 -2.645838,1.714503 l 3.492506,4.974174 h -3.556006 l -3.323172,-4.720174 h -1.883836 v 4.720174 H 30.405048 V 73.117643 h 6.54051 q 1.566336,0 2.815171,0.635001 1.248836,0.613835 1.947337,1.73567 0.719668,1.121835 0.719668,2.540004 z m -8.911181,2.05317 h 3.111505 q 1.143002,0 1.862669,-0.550334 0.719668,-0.571501 0.719668,-1.502836 0,-0.931335 -0.719668,-1.481669 -0.719667,-0.571501 -1.862669,-0.571501 h -3.111505 z"
         style="font-style:normal;font-variant:normal;font-weight:bold;font-stretch:normal;font-size:21.16670036px;line-height:91.00000262%;font-family:Metropolis;-inkscape-font-specification:'Metropolis Bold';letter-spacing:-0.529167px;stroke-width:0.26458299"
         id="path51" />
      <path
         d="m 43.986463,76.715982 h 3.090338 v 10.943184 h -3.090338 z m 1.566335,-1.502835 q -0.719667,0 -1.206501,-0.486834 -0.486835,-0.508001 -0.486835,-1.206502 0,-0.656168 0.486835,-1.143002 0.508,-0.508001 1.206501,-0.508001 0.677335,0 1.164169,0.508001 0.508001,0.486834 0.508001,1.143002 0,0.698501 -0.508001,1.206502 -0.486834,0.486834 -1.164169,0.486834 z"
         style="font-style:normal;font-variant:normal;font-weight:bold;font-stretch:normal;font-size:21.16670036px;line-height:91.00000262%;font-family:Metropolis;-inkscape-font-specification:'Metropolis Bold';letter-spacing:-0.529167px;stroke-width:0.26458299"
         id="path53" />
      <path
         d="m 59.941195,76.715982 v 9.779016 q 0,1.397002 -0.762002,2.476504 -0.740834,1.100668 -2.074336,1.714503 -1.333502,0.613834 -3.048005,0.613834 -1.397002,0 -2.688171,-0.402167 -1.291169,-0.402168 -2.137837,-1.058335 l 1.079502,-2.180171 q 0.529167,0.465668 1.418169,0.740835 0.910168,0.296334 1.862669,0.296334 1.481669,0 2.370671,-0.635001 0.889001,-0.635001 0.889001,-1.693336 v -1.227669 q -0.656167,0.825501 -1.608669,1.270002 -0.931335,0.444501 -2.010836,0.444501 -1.375836,0 -2.497671,-0.656168 -1.100668,-0.677334 -1.73567,-1.86267 -0.635001,-1.185335 -0.635001,-2.68817 0,-1.502836 0.635001,-2.667005 0.635002,-1.185335 1.73567,-1.841503 1.121835,-0.677334 2.497671,-0.677334 1.079501,0 2.074336,0.486834 0.994835,0.465667 1.545169,1.248835 v -1.481669 z m -5.736176,7.535346 q 1.164168,0 1.905003,-0.719668 0.740834,-0.740835 0.740834,-1.883836 0,-1.143002 -0.740834,-1.86267 -0.740835,-0.719668 -1.905003,-0.719668 -1.164169,0 -1.905003,0.719668 -0.740835,0.719668 -0.740835,1.86267 0,1.143001 0.740835,1.883836 0.740834,0.719668 1.905003,0.719668 z"
         style="font-style:normal;font-variant:normal;font-weight:bold;font-stretch:normal;font-size:21.16670036px;line-height:91.00000262%;font-family:Metropolis;-inkscape-font-specification:'Metropolis Bold';letter-spacing:-0.529167px;stroke-width:0.26458299"
         id="path55" />
      <path
         d="m 68.319239,76.461982 q 1.185335,0 2.095503,0.550334 0.931335,0.529168 1.439336,1.502836 0.529168,0.952501 0.529168,2.18017 v 6.963844 H 69.419908 V 81.35149 q 0,-1.016002 -0.592668,-1.651003 -0.571501,-0.635001 -1.502836,-0.635001 -0.973668,0 -1.629836,0.613834 -0.656167,0.613835 -0.656167,1.502836 v 6.47701 H 61.948062 V 72.863643 h 3.090339 v 5.185841 q 0.508,-0.740834 1.375835,-1.164168 0.867835,-0.423334 1.905003,-0.423334 z"
         style="font-style:normal;font-variant:normal;font-weight:bold;font-stretch:normal;font-size:21.16670036px;line-height:91.00000262%;font-family:Metropolis;-inkscape-font-specification:'Metropolis Bold';letter-spacing:-0.529167px;stroke-width:0.26458299"
         id="path57" />
      <path
         d="m 80.567484,86.960665 q -0.486834,0.423334 -1.164169,0.698501 -0.677334,0.254001 -1.333502,0.254001 -1.460502,0 -2.391837,-0.931335 -0.910168,-0.931335 -0.910168,-2.413004 v -5.355175 h -1.502836 v -2.497671 h 1.502836 v -3.005671 h 2.984505 v 3.005671 h 2.37067 v 2.497671 h -2.37067 v 4.868341 q 0,0.529168 0.296333,0.889002 0.296334,0.338667 0.740835,0.338667 0.3175,0 0.592668,-0.08467 0.275167,-0.105834 0.4445,-0.275167 z"
         style="font-style:normal;font-variant:normal;font-weight:bold;font-stretch:normal;font-size:21.16670036px;line-height:91.00000262%;font-family:Metropolis;-inkscape-font-specification:'Metropolis Bold';letter-spacing:-0.529167px;stroke-width:0.26458299"
         id="path59" />
      <path
         d="m 85.541658,87.913167 q -1.312336,0 -2.624671,-0.423334 -1.312336,-0.444501 -2.307171,-1.227669 l 1.248836,-1.947336 q 0.867834,0.613834 1.862669,0.973668 1.016002,0.359834 1.883837,0.359834 0.762001,0 1.164168,-0.254 0.423334,-0.275168 0.423334,-0.762002 0,-0.486834 -0.529167,-0.762001 -0.508001,-0.275167 -1.545169,-0.529167 -1.333503,-0.317501 -2.180171,-0.677335 -0.825501,-0.359834 -1.333502,-0.994835 -0.486834,-0.635001 -0.486834,-1.651002 0,-1.037169 0.529168,-1.841503 0.529167,-0.804335 1.502835,-1.248836 0.973669,-0.465667 2.243671,-0.465667 1.143001,0 2.24367,0.359834 1.121835,0.359834 2.074336,0.994835 l -1.143001,1.98967 q -0.783168,-0.508001 -1.629836,-0.804335 -0.825502,-0.317501 -1.545169,-0.317501 -0.635001,0 -1.058335,0.296334 -0.402168,0.275167 -0.402168,0.719668 0,0.402167 0.402168,0.613834 0.423334,0.211667 1.672169,0.550335 1.227669,0.3175 2.05317,0.677334 0.825501,0.338667 1.375835,1.037168 0.571501,0.677335 0.571501,1.79917 0,1.608669 -1.227668,2.582337 -1.206502,0.952502 -3.238505,0.952502 z"
         style="font-style:normal;font-variant:normal;font-weight:bold;font-stretch:normal;font-size:21.16670036px;line-height:91.00000262%;font-family:Metropolis;-inkscape-font-specification:'Metropolis Bold';letter-spacing:-0.529167px;stroke-width:0.26458299"
         id="path61" />
    </g>
    <rect
       ry="5.8208332"
       rx="5.8208332"
       y="55.298225"
       x="5.2041235"
       height="11.641666"
       width="21.166666"
       id="rect1493"
       style="opacity:1;fill:none;fill-opacity:1;stroke:#000000;stroke-width:2.91042;stroke-linecap:butt;stroke-linejoin:round;stroke-miterlimit:4;stroke-dasharray:none;stroke-dashoffset:10;stroke-opacity:1;paint-order:markers fill stroke"
       inkscape:export-filename="Data Rights switch variant.png"
       inkscape:export-xdpi="135.28"
       inkscape:export-ydpi="135.28" />
    <ellipse
       ry="3.5718751"
       rx="3.5718753"
       cy="61.118904"
       cx="20.549932"
       id="ellipse1495"
       style="opacity:1;fill:#000000;fill-opacity:1;stroke:none;stroke-width:2.91042;stroke-linecap:butt;stroke-linejoin:round;stroke-miterlimit:4;stroke-dasharray:none;stroke-dashoffset:10;stroke-opacity:1;paint-order:markers fill stroke"
       inkscape:export-filename="Data Rights switch variant.png"
       inkscape:export-xdpi="135.28"
       inkscape:export-ydpi="135.28" />
  </g>
</svg>
